<svg width="1368" height="768" viewBox="0 0 1368 768" fill="none" xmlns="http://www.w3.org/2000/svg">
<g filter="url(#filter0_d)">
<path d="M685.5 62L1580.54 983.75H-209.537L685.5 62Z" fill="white"/>
</g>
<circle cx="221.895" cy="580.158" r="7.89474" fill="#F8F8F8"/>
<circle cx="221.895" cy="474.895" r="7.89474" fill="#F8F8F8"/>
<circle cx="327.158" cy="580.158" r="7.89474" fill="#F8F8F8"/>
<circle cx="327.158" cy="474.895" r="7.89474" fill="#F8F8F8"/>
<circle cx="221.895" cy="632.789" r="7.89474" fill="#F8F8F8"/>
<circle cx="221.895" cy="527.526" r="7.89474" fill="#F8F8F8"/>
<circle cx="327.158" cy="632.789" r="7.89474" fill="#F8F8F8"/>
<circle cx="327.158" cy="527.526" r="7.89474" fill="#F8F8F8"/>
<circle cx="274.526" cy="580.158" r="7.89474" fill="#F8F8F8"/>
<circle cx="274.526" cy="474.895" r="7.89474" fill="#F8F8F8"/>
<circle cx="379.79" cy="580.158" r="7.89474" fill="#F8F8F8"/>
<circle cx="379.79" cy="474.895" r="7.89474" fill="#F8F8F8"/>
<circle cx="274.526" cy="632.789" r="7.89474" fill="#F8F8F8"/>
<circle cx="274.526" cy="527.526" r="7.89474" fill="#F8F8F8"/>
<circle cx="379.79" cy="632.789" r="7.89474" fill="#F8F8F8"/>
<circle cx="379.79" cy="527.526" r="7.89474" fill="#F8F8F8"/>
<circle cx="248.21" cy="580.158" r="7.89474" fill="#F8F8F8"/>
<circle cx="248.21" cy="474.895" r="7.89474" fill="#F8F8F8"/>
<circle cx="353.474" cy="580.158" r="7.89474" fill="#F8F8F8"/>
<circle cx="353.474" cy="474.895" r="7.89474" fill="#F8F8F8"/>
<circle cx="248.21" cy="632.789" r="7.89474" fill="#F8F8F8"/>
<circle cx="248.21" cy="527.526" r="7.89474" fill="#F8F8F8"/>
<circle cx="353.474" cy="632.789" r="7.89474" fill="#F8F8F8"/>
<circle cx="353.474" cy="527.526" r="7.89474" fill="#F8F8F8"/>
<circle cx="300.842" cy="580.158" r="7.89474" fill="#F8F8F8"/>
<circle cx="300.842" cy="474.895" r="7.89474" fill="#F8F8F8"/>
<circle cx="406.105" cy="580.158" r="7.89474" fill="#F8F8F8"/>
<circle cx="406.105" cy="474.895" r="7.89474" fill="#F8F8F8"/>
<circle cx="300.842" cy="632.789" r="7.89474" fill="#F8F8F8"/>
<circle cx="300.842" cy="527.526" r="7.89474" fill="#F8F8F8"/>
<circle cx="406.105" cy="632.789" r="7.89474" fill="#F8F8F8"/>
<circle cx="406.105" cy="527.526" r="7.89474" fill="#F8F8F8"/>
<circle cx="221.895" cy="606.474" r="7.89474" fill="#F8F8F8"/>
<circle cx="221.895" cy="501.211" r="7.89474" fill="#F8F8F8"/>
<circle cx="327.158" cy="606.474" r="7.89474" fill="#F8F8F8"/>
<circle cx="327.158" cy="501.211" r="7.89474" fill="#F8F8F8"/>
<circle cx="221.895" cy="659.105" r="7.89474" fill="#F8F8F8"/>
<circle cx="221.895" cy="553.842" r="7.89474" fill="#F8F8F8"/>
<circle cx="327.158" cy="659.105" r="7.89474" fill="#F8F8F8"/>
<circle cx="327.158" cy="553.842" r="7.89474" fill="#F8F8F8"/>
<circle cx="274.526" cy="606.474" r="7.89474" fill="#F8F8F8"/>
<circle cx="274.526" cy="501.211" r="7.89474" fill="#F8F8F8"/>
<circle cx="379.79" cy="606.474" r="7.89474" fill="#F8F8F8"/>
<circle cx="379.79" cy="501.211" r="7.89474" fill="#F8F8F8"/>
<circle cx="274.526" cy="659.105" r="7.89474" fill="#F8F8F8"/>
<circle cx="274.526" cy="553.842" r="7.89474" fill="#F8F8F8"/>
<circle cx="379.79" cy="659.105" r="7.89474" fill="#F8F8F8"/>
<circle cx="379.79" cy="553.842" r="7.89474" fill="#F8F8F8"/>
<circle cx="248.21" cy="606.474" r="7.89474" fill="#F8F8F8"/>
<circle cx="248.21" cy="501.211" r="7.89474" fill="#F8F8F8"/>
<circle cx="353.474" cy="606.474" r="7.89474" fill="#F8F8F8"/>
<circle cx="353.474" cy="501.211" r="7.89474" fill="#F8F8F8"/>
<circle cx="248.21" cy="659.105" r="7.89474" fill="#F8F8F8"/>
<circle cx="248.21" cy="553.842" r="7.89474" fill="#F8F8F8"/>
<circle cx="353.474" cy="659.105" r="7.89474" fill="#F8F8F8"/>
<circle cx="353.474" cy="553.842" r="7.89474" fill="#F8F8F8"/>
<circle cx="300.842" cy="606.474" r="7.89474" fill="#F8F8F8"/>
<circle cx="300.842" cy="501.211" r="7.89474" fill="#F8F8F8"/>
<circle cx="406.105" cy="606.474" r="7.89474" fill="#F8F8F8"/>
<circle cx="406.105" cy="501.211" r="7.89474" fill="#F8F8F8"/>
<circle cx="300.842" cy="659.105" r="7.89474" fill="#F8F8F8"/>
<circle cx="300.842" cy="553.842" r="7.89474" fill="#F8F8F8"/>
<circle cx="406.105" cy="659.105" r="7.89474" fill="#F8F8F8"/>
<circle cx="406.105" cy="553.842" r="7.89474" fill="#F8F8F8"/>
<g filter="url(#filter1_d)">
<path d="M676 197L1382.68 925.25H-30.6768L676 197Z" fill="white"/>
</g>
<g filter="url(#filter2_d)">
<path d="M684 332L1187.16 850.25H180.839L684 332Z" fill="white"/>
</g>
<circle cx="867.842" cy="37.6842" r="11.8421" fill="#F8F8F8" fill-opacity="0.5"/>
<circle cx="1025.74" cy="37.6842" r="11.8421" fill="#F8F8F8" fill-opacity="0.5"/>
<circle cx="946.789" cy="37.6842" r="11.8421" fill="#F8F8F8" fill-opacity="0.5"/>
<circle cx="1104.68" cy="37.6842" r="11.8421" fill="#F8F8F8" fill-opacity="0.5"/>
<circle cx="907.316" cy="37.6842" r="11.8421" fill="#F8F8F8" fill-opacity="0.5"/>
<circle cx="1065.21" cy="37.6842" r="11.8421" fill="#F8F8F8" fill-opacity="0.5"/>
<circle cx="986.263" cy="37.6842" r="11.8421" fill="#F8F8F8" fill-opacity="0.5"/>
<circle cx="1144.16" cy="37.6842" r="11.8421" fill="#F8F8F8" fill-opacity="0.5"/>
<circle cx="867.842" cy="-1.78949" r="11.8421" fill="#F8F8F8" fill-opacity="0.5"/>
<circle cx="1025.74" cy="-1.78949" r="11.8421" fill="#F8F8F8" fill-opacity="0.5"/>
<circle cx="867.842" cy="77.1579" r="11.8421" fill="#F8F8F8" fill-opacity="0.5"/>
<circle cx="1025.74" cy="77.1579" r="11.8421" fill="#F8F8F8" fill-opacity="0.5"/>
<circle cx="946.789" cy="-1.78949" r="11.8421" fill="#F8F8F8" fill-opacity="0.5"/>
<circle cx="1104.68" cy="-1.78949" r="11.8421" fill="#F8F8F8" fill-opacity="0.5"/>
<circle cx="946.789" cy="77.1579" r="11.8421" fill="#F8F8F8" fill-opacity="0.5"/>
<circle cx="1104.68" cy="77.1579" r="11.8421" fill="#F8F8F8" fill-opacity="0.5"/>
<circle cx="907.316" cy="-1.78949" r="11.8421" fill="#F8F8F8" fill-opacity="0.5"/>
<circle cx="1065.21" cy="-1.78949" r="11.8421" fill="#F8F8F8" fill-opacity="0.5"/>
<circle cx="907.316" cy="77.1579" r="11.8421" fill="#F8F8F8" fill-opacity="0.5"/>
<circle cx="1065.21" cy="77.1579" r="11.8421" fill="#F8F8F8" fill-opacity="0.5"/>
<circle cx="986.263" cy="-1.78949" r="11.8421" fill="#F8F8F8" fill-opacity="0.5"/>
<circle cx="1144.16" cy="-1.78949" r="11.8421" fill="#F8F8F8" fill-opacity="0.5"/>
<circle cx="986.263" cy="77.1579" r="11.8421" fill="#F8F8F8" fill-opacity="0.5"/>
<circle cx="1144.16" cy="77.1579" r="11.8421" fill="#F8F8F8" fill-opacity="0.5"/>
<defs>
<filter id="filter0_d" x="-259.537" y="12" width="1890.07" height="1021.75" filterUnits="userSpaceOnUse" color-interpolation-filters="sRGB">
<feFlood flood-opacity="0" result="BackgroundImageFix"/>
<feColorMatrix in="SourceAlpha" type="matrix" values="0 0 0 0 0 0 0 0 0 0 0 0 0 0 0 0 0 0 127 0"/>
<feOffset/>
<feGaussianBlur stdDeviation="25"/>
<feColorMatrix type="matrix" values="0 0 0 0 0 0 0 0 0 0 0 0 0 0 0 0 0 0 0.05 0"/>
<feBlend mode="normal" in2="BackgroundImageFix" result="effect1_dropShadow"/>
<feBlend mode="normal" in="SourceGraphic" in2="effect1_dropShadow" result="shape"/>
</filter>
<filter id="filter1_d" x="-80.6768" y="147" width="1513.35" height="828.25" filterUnits="userSpaceOnUse" color-interpolation-filters="sRGB">
<feFlood flood-opacity="0" result="BackgroundImageFix"/>
<feColorMatrix in="SourceAlpha" type="matrix" values="0 0 0 0 0 0 0 0 0 0 0 0 0 0 0 0 0 0 127 0"/>
<feOffset/>
<feGaussianBlur stdDeviation="25"/>
<feColorMatrix type="matrix" values="0 0 0 0 0 0 0 0 0 0 0 0 0 0 0 0 0 0 0.075 0"/>
<feBlend mode="normal" in2="BackgroundImageFix" result="effect1_dropShadow"/>
<feBlend mode="normal" in="SourceGraphic" in2="effect1_dropShadow" result="shape"/>
</filter>
<filter id="filter2_d" x="130.839" y="282" width="1106.32" height="618.25" filterUnits="userSpaceOnUse" color-interpolation-filters="sRGB">
<feFlood flood-opacity="0" result="BackgroundImageFix"/>
<feColorMatrix in="SourceAlpha" type="matrix" values="0 0 0 0 0 0 0 0 0 0 0 0 0 0 0 0 0 0 127 0"/>
<feOffset/>
<feGaussianBlur stdDeviation="25"/>
<feColorMatrix type="matrix" values="0 0 0 0 0 0 0 0 0 0 0 0 0 0 0 0 0 0 0.1 0"/>
<feBlend mode="normal" in2="BackgroundImageFix" result="effect1_dropShadow"/>
<feBlend mode="normal" in="SourceGraphic" in2="effect1_dropShadow" result="shape"/>
</filter>
</defs>
</svg>
